# xmcd
#
# Track frame offsets:
#	150
#	12453
#	32468
#	47891
#	67148
#	83555
#	100818
#	120905
#	138965
#	141902
#	163988
#	181941
#	202473
#	217107
#	238754
#	255439
#	257750
#	275166
#	299454
#
# Disc length: 4150 seconds
#
# Revision: 4
# Processed by: cddbd v1.5.2PL0 Copyright (c) Steve Scherf et al.
# Submitted via: audiograbber 1.83.01
#
DISCID=29103413
DTITLE=Ras Kass - Institutionalized
DYEAR=2005
DGENRE=Hip-Hop
TTITLE0=Ras Kass - It's The Bizness
TTITLE1=Ras Kass - Air 'Em Out
TTITLE2=Ras Kass, Jelly Roll - Slap Season
TTITLE3=Ras Kass - Flood
TTITLE4=Ras Kass, Xzibit - Expect Me
TTITLE5=Ras Kass - Put Ya Glass Out
TTITLE6=Ras Kass, E-40 - Write Where I Left Off
TTITLE7=Ras Kass, Vis-A-Vis - Shine
TTITLE8=Ras Kass - Clayton Bixby (Skit 1)
TTITLE9=Ras Kass, Xavie - No Love
TTITLE10=Ras Kass, Maria - More
TTITLE11=Ras Kass - My Apology
TTITLE12=Ras Kass, Chamillionaire, Xzibit, Krondon - U Ain't Me
TTITLE13=Ras Kass, Strong Arm Steady, Young Buck, G-Unit - Look Alive
TTITLE14=Ras Kass - Life and Bullshit
TTITLE15=Ras Kass - Clayton Bixby (Skit 2)
TTITLE16=Ras Kass, Mystic - Unconditional
TTITLE17=Ras Kass, Crooked I, El Dog, Spider Loc, G-Unit, 40 Glocc, Cali Casino
TTITLE17=We Run The Streets
TTITLE18=Ras Kass - Welcome Home
EXTD=www.RapMusicGuide.com\n
EXTT0=
EXTT1=
EXTT2=
EXTT3=
EXTT4=
EXTT5=
EXTT6=
EXTT7=
EXTT8=
EXTT9=
EXTT10=
EXTT11=
EXTT12=
EXTT13=
EXTT14=
EXTT15=
EXTT16=
EXTT17=
EXTT18=
PLAYORDER=
